PathFileType	4	(X/Y/Z)	C:\Users\Biomechanik\SynologyDrive\AlexP\Athlete_03\Athlete_3_25_03_31\Walking_08\marker_experimental.trc
DataRate	CameraRate	NumFrames	NumMarkers	Units	OrigDataRate	OrigDataStartFrame	OrigNumFrames
200.000000	200.000000	4	53	mm	200.000000	166	222
Frame#	Time	GLAB			RFHD			LFHD			C7			T6			SPINMOL			SPINM2			SPINM3			T12			BELTOL			BELT2			BELT3			SACROL			SACR2			SACR3			LTHOL			LTH2			LTH3			LSHAOL			LSHA2			LSHA3			LHEE			LTOE			LM5			RTHOL			RTH2			RTH3			RSHAOL			RSHA2			RSHA3			RHEE			RTOE			RM5			STRN			XIPH			LACR			LUAOL			LUA2			LUA3			LLAOL			LLA2			LLA3			LWRR			LWRU			RACR			RUAOL			RUA2			RUA3			RLAOL			RLA2			RLA3			RWRR			RWRU			
		X1	Y1	Z1	X2	Y2	Z2	X3	Y3	Z3	X4	Y4	Z4	X5	Y5	Z5	X6	Y6	Z6	X7	Y7	Z7	X8	Y8	Z8	X9	Y9	Z9	X10	Y10	Z10	X11	Y11	Z11	X12	Y12	Z12	X13	Y13	Z13	X14	Y14	Z14	X15	Y15	Z15	X16	Y16	Z16	X17	Y17	Z17	X18	Y18	Z18	X19	Y19	Z19	X20	Y20	Z20	X21	Y21	Z21	X22	Y22	Z22	X23	Y23	Z23	X24	Y24	Z24	X25	Y25	Z25	X26	Y26	Z26	X27	Y27	Z27	X28	Y28	Z28	X29	Y29	Z29	X30	Y30	Z30	X31	Y31	Z31	X32	Y32	Z32	X33	Y33	Z33	X34	Y34	Z34	X35	Y35	Z35	X36	Y36	Z36	X37	Y37	Z37	X38	Y38	Z38	X39	Y39	Z39	X40	Y40	Z40	X41	Y41	Z41	X42	Y42	Z42	X43	Y43	Z43	X44	Y44	Z44	X45	Y45	Z45	X46	Y46	Z46	X47	Y47	Z47	X48	Y48	Z48	X49	Y49	Z49	X50	Y50	Z50	X51	Y51	Z51	X52	Y52	Z52	X53	Y53	Z53	

167	0.8300000000000001	686.8701782226561	1614.572509765625	141.2153778076173	633.6708374023436	1640.309326171875	203.5030670166017	646.1232299804686	1634.147338867188	65.36591339111339	466.7650756835936	1451.28369140625	127.2693481445313	406.5608520507812	1284.219970703125	129.8816070556641	398.3753051757812	1243.87255859375	110.2131958007813	392.1152038574218	1238.380737304688	159.8692932128907	400.7941894531249	1180.3017578125	128.5155792236329	421.4942626953124	1114.423461914062	133.5053253173829	387.8471374511718	1082.316284179688	118.5415802001954	386.2033386230468	1080.800170898438	169.0889129638672	379.2592773437499	1020.906066894531	140.3850555419922	393.3744506835937	965.522216796875	125.2791442871094	395.7887878417968	964.8760375976562	176.9905853271485	381.1553649902343	905.4371337890625	150.8829498291016	500.2991943359374	680.4382934570312	-27.11362075805655	454.0518493652343	623.4700317382812	3.056756019592369	502.2361450195312	621.159912109375	-10.48614406585684	493.4316101074219	325.6246948242188	-0.7885431051253367	443.4635314941406	265.7303466796875	15.29419994354256	493.2313842773438	264.0785522460938	8.117479324340911	422.6370239257812	76.58876037597659	108.2092590332032	640.7256469726562	47.30440139770512	110.0361785888673	592.8453369140625	29.28392982482914	8.49326705932628	550.5227050781249	687.5733642578125	350.383270263672	621.1789550781249	657.3597412109375	369.9603271484376	582.1376953124999	634.808349609375	348.9939270019532	542.3140258789061	421.4029541015626	353.6192932128907	528.9819335937499	344.3140258789063	345.8055725097657	499.1285705566406	381.3149719238282	332.8903808593751	354.7197570800781	236.4145965576172	207.3860626220704	506.7814941406249	89.60330200195315	226.822723388672	447.6243286132812	104.5884780883789	320.2272644042969	635.8134155273436	1348.746948242188	138.9652557373048	647.8746948242186	1203.96240234375	144.1833496093751	552.0339965820311	1406.39208984375	-41.96197509765615	552.8300170898436	1251.310424804688	-142.3507385253905	542.6443481445311	1189.279907226562	-162.2805938720702	587.3278808593749	1195.19140625	-138.0157928466796	603.0735473632811	991.4599609375	-187.3397979736327	576.7716674804688	918.3101196289062	-173.7272491455077	623.2991333007811	933.4690551757812	-183.5969696044921	666.337646484375	839.1024780273438	-179.2773284912108	702.4810180664062	853.5548706054688	-109.7227249145507	544.2916259765624	1410.18017578125	303.141326904297	514.7428588867185	1267.95947265625	408.378631591797	534.9667358398435	1205.988037109375	420.4530334472657	485.1260375976561	1213.281127929688	431.1274414062501	512.9862670898435	994.2387084960938	476.053436279297	568.9918823242185	946.53955078125	507.2192382812501	527.3392944335935	933.3880615234375	483.1653442382814	569.5706176757811	855.1723022460938	502.7582092285157	608.2203369140624	837.8892211914062	432.8109741210939	
168	0.835	693.5941162109374	1614.953247070312	141.0668182373048	640.4082031249999	1640.690063476562	203.3728332519532	652.8442993164061	1634.576171875	65.22971343994152	473.3948974609374	1451.802978515625	127.0719223022462	413.1250305175781	1284.69580078125	129.6330718994141	404.9093017578124	1244.347412109375	109.9613418579102	398.715850830078	1238.854614257812	159.6167144775391	407.3475646972656	1180.781616210938	128.277069091797	428.0628662109374	1114.88671875	133.3279724121095	394.1613159179687	1082.635498046875	118.5974960327149	392.667022705078	1081.125732421875	169.1472320556641	385.7209777832031	1021.212707519531	140.4551391601563	399.8548889160156	965.927490234375	125.3683776855469	402.525909423828	965.2664794921875	177.0322570800782	387.7613220214843	905.8334350585938	151.0283813476563	504.3590087890624	681.2449340820312	-27.37148094177237	457.7677612304687	624.7252197265625	3.146985769271935	505.8560180664062	621.9507446289062	-10.65069580078116	494.8374633789062	326.3055725097657	-0.8830623626708075	444.5680541992188	266.7003479003906	15.32088184356698	494.3220825195312	264.7568664550782	8.031708717346282	423.0631713867188	77.51393890380862	108.2231521606446	640.9398803710938	47.19956588745121	110.008155822754	592.88623046875	29.2319374084473	8.434576034546007	559.7639770507811	688.3817138671875	350.3304748535157	630.9281005859374	658.81005859375	368.8620605468751	591.7739868164061	635.944091796875	348.611053466797	554.8639526367186	419.1705932617188	352.7617187500001	543.7146606445311	341.7834472656251	344.2808532714845	512.5853271484374	378.0646972656251	332.1464233398439	371.3966064453124	229.2191772460938	206.4680175781251	528.5726928710938	87.91943359375003	226.1562805175782	469.0172424316406	101.0238876342774	319.5605773925782	642.2996215820311	1349.185791015625	138.7750396728517	654.2608032226561	1204.384765625	143.8162841796876	558.5474243164061	1407.00830078125	-42.11468887329092	560.0457153320311	1252.145141601562	-142.7190093994139	550.1937866210936	1190.0751953125	-162.664581298828	594.8611450195311	1196.2197265625	-138.4292602539061	612.7299804687499	992.7711791992188	-187.8102569580077	587.4888305664062	919.3086547851562	-174.0099029541014	633.8027954101561	935.1061401367188	-183.8846740722655	678.2194213867188	841.3942260742188	-179.2307586669921	714.252197265625	856.6809692382812	-109.8301544189452	550.7545166015624	1410.540649414062	302.9816284179689	520.3474121093748	1268.334228515625	408.1554260253907	540.315490722656	1206.274536132812	420.2474060058595	490.4333190917968	1213.728759765625	430.6682434082032	516.8083496093748	994.7477416992188	475.7791748046876	572.0937499999998	946.5648803710938	507.4135742187501	530.5366210937498	933.7957153320312	483.0621643066407	571.8788452148436	855.1678466796875	503.0210876464845	610.8778686523436	837.4327392578125	433.3961181640626	
169	0.84	700.3294677734374	1615.265502929688	140.9429931640626	647.1594848632811	1641.001220703125	203.2698516845704	659.5757446289061	1634.94189453125	65.12075805664075	480.0260620117186	1452.262573242188	126.8968429565431	419.6837463378906	1285.113647460938	129.4197387695313	411.4345397949218	1244.762817382812	109.7484741210938	405.3075256347655	1239.275268554688	159.4066619873048	413.8925170898437	1181.203125	128.0815887451173	434.6229858398437	1115.290771484375	133.1975402832032	400.4581909179687	1082.894165039062	118.7203445434571	399.1227722167968	1081.389526367188	169.2711334228516	392.1672973632812	1021.458862304688	140.5906524658204	406.3253784179687	966.284423828125	125.4995040893555	409.267852783203	965.5791625976562	177.1133270263673	394.3824157714843	906.1625366210938	151.1835327148438	508.4770202636718	682.0108032226562	-27.63432884216299	461.5384521484374	625.9263916015625	3.193497896194543	509.5310363769531	622.7039794921875	-10.83576488494864	496.3414916992188	326.9694824218751	-0.9883940815924687	445.757568359375	267.6540832519531	15.28704833984383	495.5028381347656	265.4219665527344	7.934826850891204	423.4851989746094	78.44830322265628	108.2272109985352	641.1526489257812	47.08830261230473	109.987648010254	592.9360961914062	29.18579864501957	8.380078315734972	568.9208984374999	689.1349487304688	350.2777709960939	640.5618286132811	660.1693725585938	367.7442321777345	601.2924194335936	637.015380859375	348.2235412597657	567.3518066406249	416.7964172363282	351.8573303222657	558.4321899414061	339.1568603515626	342.7782287597657	526.0449218749999	374.6500244140626	331.3641357421876	388.3322448730468	221.8437652587891	205.614974975586	550.428466796875	86.23821258544925	225.5320129394532	490.5328063964843	97.41896820068362	318.9371032714845	648.7870483398436	1349.558471679688	138.6008605957032	660.6647949218749	1204.743774414062	143.4650726318361	565.0565185546874	1407.565185546875	-42.24417495727528	567.2496948242186	1252.932861328125	-143.0618896484374	557.7211303710936	1190.827880859375	-163.0182495117186	602.3793334960936	1197.2021484375	-138.8217926025389	622.3528442382811	994.0530395507812	-188.2516021728514	598.1798706054688	920.2937622070312	-174.2458953857421	644.2662353515624	936.7261352539062	-184.1415710449218	690.0540771484375	843.6897583007812	-179.1558380126952	725.9701538085938	859.8128662109375	-109.9111709594725	557.2225952148436	1410.842651367188	302.8412475585939	525.9749755859373	1268.654663085938	407.9453430175782	545.6889038085935	1206.502197265625	420.0495605468751	495.771270751953	1214.121337890625	430.2277832031251	520.650695800781	995.2073974609375	475.4975585937501	575.204650878906	946.5548095703125	507.6110839843751	533.7684936523435	934.1552734375	482.9453430175782	574.2122192382811	855.1305541992188	503.2727050781251	613.6115722656249	836.9671630859375	433.9976501464845	
170	0.845	707.0766601562499	1615.50732421875	140.8440856933595	653.9251098632811	1641.240844726562	203.1942596435548	666.3179931640624	1635.242065429688	65.03916168212903	486.6580810546874	1452.659545898438	126.7444000244141	426.2377319335937	1285.470458984375	129.2420806884766	417.9521484374999	1245.116088867188	109.5747146606446	411.8919677734374	1239.638671875	159.238494873047	420.4305725097656	1181.5634765625	127.9284057617188	441.1761474609374	1115.6337890625	133.111541748047	406.7434082031249	1083.096435546875	118.9042358398438	405.574249267578	1081.595092773438	169.4545288085938	398.6012268066406	1021.648559570312	140.7850341796876	412.7889709472656	966.5929565429688	125.6701202392579	416.0137329101561	965.8165283203125	177.2317504882813	401.0179443359374	906.42626953125	151.347396850586	512.6505737304688	682.7332153320312	-27.90081214904776	465.3598632812499	627.0718994140625	3.199042558670129	513.2583618164062	623.4164428710938	-11.03899765014639	497.937255859375	327.6122436523438	-1.099906444549469	447.0271301269531	268.587646484375	15.20322799682625	496.7677612304688	266.0697937011719	7.831533432006927	423.9019775390625	79.38791656494143	108.2274017333985	641.3634643554688	46.96941757202153	109.9766235351564	592.994873046875	29.14650154113773	8.331409454345811	577.9931030273436	689.828125	350.219940185547	650.0789794921874	661.4291381835938	366.6079101562501	610.6948852539061	638.0125732421875	347.8259887695314	579.7738647460936	414.2945861816407	350.9049072265626	573.1234130859374	336.4527282714844	341.309295654297	539.5050048828124	371.0897216796876	330.5430297851564	405.5276489257812	214.3209228515625	204.8308410644532	572.3391723632812	84.57710266113284	224.9502258300782	512.1604614257811	93.79151916503909	318.358856201172	655.2763671874999	1349.863403320312	138.4429779052736	667.0852661132811	1205.03759765625	143.1301116943361	571.5609130859374	1408.06103515625	-42.3502082824706	574.4415283203124	1253.671752929688	-143.3790588378905	565.2268676757811	1191.53515625	-163.3410034179686	609.8833007812499	1198.137451171875	-139.1930541992186	631.9445800781249	995.30419921875	-188.6638641357421	608.8450317382812	921.26416015625	-174.4395599365233	654.6907958984374	938.3270874023438	-184.3684997558593	701.8407592773438	845.986328125	-179.0530853271483	737.6304321289062	862.9458618164062	-109.9642181396483	563.6971435546874	1411.084350585938	302.720184326172	531.628967285156	1268.918701171875	407.7487792968751	551.0899658203123	1206.670043945312	419.8602294921876	501.1431884765624	1214.457641601562	429.8068237304689	524.5200195312498	995.6174926757812	475.2100219726564	578.3348999023435	946.5092163085938	507.8086547851564	537.0446777343748	934.4644165039062	482.8152465820314	576.5783691406249	855.059814453125	503.5128784179689	616.4222412109374	836.489013671875	434.6138916015626	
